<mxfile host="app.diagrams.net" modified="2023-12-05T12:18:33.382Z" agent="Mozilla/5.0 (Windows NT 10.0; Win64; x64) AppleWebKit/537.36 (KHTML, like Gecko) Chrome/119.0.0.0 Safari/537.36" etag="Apr00uUFz7qtRl0hClP9" version="22.1.5" type="device">
  <diagram id="C5RBs43oDa-KdzZeNtuy" name="Page-1">
    <mxGraphModel dx="794" dy="1113" grid="1" gridSize="10" guides="1" tooltips="1" connect="1" arrows="1" fold="1" page="1" pageScale="1" pageWidth="827" pageHeight="1169" math="0" shadow="0">
      <root>
        <mxCell id="WIyWlLk6GJQsqaUBKTNV-0" />
        <mxCell id="WIyWlLk6GJQsqaUBKTNV-1" parent="WIyWlLk6GJQsqaUBKTNV-0" />
        <mxCell id="WIyWlLk6GJQsqaUBKTNV-3" value="게임시작 여부 확인" style="rounded=1;whiteSpace=wrap;html=1;fontSize=12;glass=0;strokeWidth=1;shadow=0;" parent="WIyWlLk6GJQsqaUBKTNV-1" vertex="1">
          <mxGeometry x="359" width="120" height="40" as="geometry" />
        </mxCell>
        <mxCell id="F_oMi_odO9XoaKtCZl9L-0" value="" style="endArrow=classic;html=1;rounded=0;exitX=0.5;exitY=1;exitDx=0;exitDy=0;" edge="1" parent="WIyWlLk6GJQsqaUBKTNV-1" source="WIyWlLk6GJQsqaUBKTNV-3" target="F_oMi_odO9XoaKtCZl9L-2">
          <mxGeometry relative="1" as="geometry">
            <mxPoint x="329" y="270" as="sourcePoint" />
            <mxPoint x="429" y="270" as="targetPoint" />
          </mxGeometry>
        </mxCell>
        <mxCell id="F_oMi_odO9XoaKtCZl9L-1" value="yes" style="edgeLabel;resizable=0;html=1;align=center;verticalAlign=middle;" connectable="0" vertex="1" parent="F_oMi_odO9XoaKtCZl9L-0">
          <mxGeometry relative="1" as="geometry" />
        </mxCell>
        <mxCell id="F_oMi_odO9XoaKtCZl9L-2" value="로고 출력" style="rounded=1;whiteSpace=wrap;html=1;" vertex="1" parent="WIyWlLk6GJQsqaUBKTNV-1">
          <mxGeometry x="359" y="80" width="120" height="60" as="geometry" />
        </mxCell>
        <mxCell id="F_oMi_odO9XoaKtCZl9L-3" value="반복문으로 내 카드와&lt;br&gt;Cpu 카드 두장씩&amp;nbsp; 뽑기" style="rounded=1;whiteSpace=wrap;html=1;" vertex="1" parent="WIyWlLk6GJQsqaUBKTNV-1">
          <mxGeometry x="339" y="210" width="160" height="60" as="geometry" />
        </mxCell>
        <mxCell id="F_oMi_odO9XoaKtCZl9L-5" value="" style="endArrow=classic;html=1;rounded=0;exitX=0.5;exitY=1;exitDx=0;exitDy=0;" edge="1" parent="WIyWlLk6GJQsqaUBKTNV-1" source="F_oMi_odO9XoaKtCZl9L-2" target="F_oMi_odO9XoaKtCZl9L-3">
          <mxGeometry width="50" height="50" relative="1" as="geometry">
            <mxPoint x="349" y="290" as="sourcePoint" />
            <mxPoint x="399" y="240" as="targetPoint" />
          </mxGeometry>
        </mxCell>
        <mxCell id="F_oMi_odO9XoaKtCZl9L-6" value="내 카드 두장과&lt;br&gt;Cpu 첫번째 카드 출력" style="rounded=1;whiteSpace=wrap;html=1;" vertex="1" parent="WIyWlLk6GJQsqaUBKTNV-1">
          <mxGeometry x="229" y="540" width="125" height="65" as="geometry" />
        </mxCell>
        <mxCell id="F_oMi_odO9XoaKtCZl9L-9" value="내 카드 리스트에 A포함" style="rounded=1;whiteSpace=wrap;html=1;" vertex="1" parent="WIyWlLk6GJQsqaUBKTNV-1">
          <mxGeometry x="354" y="320" width="130" height="60" as="geometry" />
        </mxCell>
        <mxCell id="F_oMi_odO9XoaKtCZl9L-10" value="" style="endArrow=classic;html=1;rounded=0;exitX=0.5;exitY=1;exitDx=0;exitDy=0;entryX=0.5;entryY=0;entryDx=0;entryDy=0;" edge="1" parent="WIyWlLk6GJQsqaUBKTNV-1" source="F_oMi_odO9XoaKtCZl9L-3" target="F_oMi_odO9XoaKtCZl9L-9">
          <mxGeometry width="50" height="50" relative="1" as="geometry">
            <mxPoint x="349" y="290" as="sourcePoint" />
            <mxPoint x="399" y="240" as="targetPoint" />
          </mxGeometry>
        </mxCell>
        <mxCell id="F_oMi_odO9XoaKtCZl9L-11" value="" style="endArrow=classic;html=1;rounded=0;exitX=1;exitY=0.5;exitDx=0;exitDy=0;entryX=0.5;entryY=0;entryDx=0;entryDy=0;" edge="1" parent="WIyWlLk6GJQsqaUBKTNV-1" source="F_oMi_odO9XoaKtCZl9L-9" target="F_oMi_odO9XoaKtCZl9L-17">
          <mxGeometry relative="1" as="geometry">
            <mxPoint x="469" y="400" as="sourcePoint" />
            <mxPoint x="569" y="400" as="targetPoint" />
            <Array as="points">
              <mxPoint x="539" y="350" />
            </Array>
          </mxGeometry>
        </mxCell>
        <mxCell id="F_oMi_odO9XoaKtCZl9L-12" value="Yes" style="edgeLabel;resizable=0;html=1;align=center;verticalAlign=middle;" connectable="0" vertex="1" parent="F_oMi_odO9XoaKtCZl9L-11">
          <mxGeometry relative="1" as="geometry" />
        </mxCell>
        <mxCell id="F_oMi_odO9XoaKtCZl9L-15" value="" style="endArrow=classic;html=1;rounded=0;exitX=0;exitY=0.5;exitDx=0;exitDy=0;entryX=0.392;entryY=-0.083;entryDx=0;entryDy=0;entryPerimeter=0;" edge="1" parent="WIyWlLk6GJQsqaUBKTNV-1" source="F_oMi_odO9XoaKtCZl9L-9" target="F_oMi_odO9XoaKtCZl9L-6">
          <mxGeometry relative="1" as="geometry">
            <mxPoint x="329" y="270" as="sourcePoint" />
            <mxPoint x="299" y="430" as="targetPoint" />
            <Array as="points">
              <mxPoint x="278" y="350" />
            </Array>
          </mxGeometry>
        </mxCell>
        <mxCell id="F_oMi_odO9XoaKtCZl9L-16" value="No" style="edgeLabel;resizable=0;html=1;align=center;verticalAlign=middle;" connectable="0" vertex="1" parent="F_oMi_odO9XoaKtCZl9L-15">
          <mxGeometry relative="1" as="geometry">
            <mxPoint y="5" as="offset" />
          </mxGeometry>
        </mxCell>
        <mxCell id="F_oMi_odO9XoaKtCZl9L-17" value="A 값 정하기(1,11)" style="rounded=1;whiteSpace=wrap;html=1;" vertex="1" parent="WIyWlLk6GJQsqaUBKTNV-1">
          <mxGeometry x="479" y="450" width="120" height="60" as="geometry" />
        </mxCell>
        <mxCell id="F_oMi_odO9XoaKtCZl9L-18" value="" style="endArrow=classic;html=1;rounded=0;exitX=0.5;exitY=1;exitDx=0;exitDy=0;" edge="1" parent="WIyWlLk6GJQsqaUBKTNV-1" source="F_oMi_odO9XoaKtCZl9L-17">
          <mxGeometry width="50" height="50" relative="1" as="geometry">
            <mxPoint x="449" y="590" as="sourcePoint" />
            <mxPoint x="359" y="580" as="targetPoint" />
            <Array as="points">
              <mxPoint x="539" y="580" />
            </Array>
          </mxGeometry>
        </mxCell>
        <mxCell id="F_oMi_odO9XoaKtCZl9L-19" value="유저가 한장을 더 뽑을지 선택" style="rounded=1;whiteSpace=wrap;html=1;" vertex="1" parent="WIyWlLk6GJQsqaUBKTNV-1">
          <mxGeometry x="229" y="670" width="370" height="60" as="geometry" />
        </mxCell>
        <mxCell id="F_oMi_odO9XoaKtCZl9L-20" value="" style="endArrow=classic;html=1;rounded=0;exitX=0.5;exitY=1;exitDx=0;exitDy=0;entryX=0.546;entryY=0;entryDx=0;entryDy=0;entryPerimeter=0;" edge="1" parent="WIyWlLk6GJQsqaUBKTNV-1" source="F_oMi_odO9XoaKtCZl9L-6" target="F_oMi_odO9XoaKtCZl9L-19">
          <mxGeometry width="50" height="50" relative="1" as="geometry">
            <mxPoint x="369" y="655" as="sourcePoint" />
            <mxPoint x="419" y="605" as="targetPoint" />
            <Array as="points">
              <mxPoint x="292" y="650" />
              <mxPoint x="431" y="650" />
            </Array>
          </mxGeometry>
        </mxCell>
        <mxCell id="F_oMi_odO9XoaKtCZl9L-21" value="유저와 CPU&lt;br&gt;카드 총 합 계산" style="rounded=1;whiteSpace=wrap;html=1;" vertex="1" parent="WIyWlLk6GJQsqaUBKTNV-1">
          <mxGeometry x="259" y="820" width="120" height="60" as="geometry" />
        </mxCell>
        <mxCell id="F_oMi_odO9XoaKtCZl9L-23" value="" style="endArrow=classic;html=1;rounded=0;exitX=0.681;exitY=0.983;exitDx=0;exitDy=0;exitPerimeter=0;" edge="1" parent="WIyWlLk6GJQsqaUBKTNV-1" source="F_oMi_odO9XoaKtCZl9L-19">
          <mxGeometry relative="1" as="geometry">
            <mxPoint x="589" y="1010" as="sourcePoint" />
            <mxPoint x="481" y="820" as="targetPoint" />
            <Array as="points">
              <mxPoint x="481" y="780" />
            </Array>
          </mxGeometry>
        </mxCell>
        <mxCell id="F_oMi_odO9XoaKtCZl9L-24" value="Yes" style="edgeLabel;resizable=0;html=1;align=center;verticalAlign=middle;" connectable="0" vertex="1" parent="F_oMi_odO9XoaKtCZl9L-23">
          <mxGeometry relative="1" as="geometry" />
        </mxCell>
        <mxCell id="F_oMi_odO9XoaKtCZl9L-25" value="" style="endArrow=classic;html=1;rounded=0;exitX=0.681;exitY=0.983;exitDx=0;exitDy=0;exitPerimeter=0;" edge="1" parent="WIyWlLk6GJQsqaUBKTNV-1">
          <mxGeometry relative="1" as="geometry">
            <mxPoint x="319" y="730" as="sourcePoint" />
            <mxPoint x="319" y="821" as="targetPoint" />
            <Array as="points">
              <mxPoint x="319" y="781" />
            </Array>
          </mxGeometry>
        </mxCell>
        <mxCell id="F_oMi_odO9XoaKtCZl9L-26" value="No" style="edgeLabel;resizable=0;html=1;align=center;verticalAlign=middle;" connectable="0" vertex="1" parent="F_oMi_odO9XoaKtCZl9L-25">
          <mxGeometry relative="1" as="geometry" />
        </mxCell>
        <mxCell id="F_oMi_odO9XoaKtCZl9L-27" value="유저 배열에 한장 추가" style="rounded=1;whiteSpace=wrap;html=1;" vertex="1" parent="WIyWlLk6GJQsqaUBKTNV-1">
          <mxGeometry x="429" y="820" width="120" height="60" as="geometry" />
        </mxCell>
        <mxCell id="F_oMi_odO9XoaKtCZl9L-28" value="" style="endArrow=classic;html=1;rounded=0;exitX=0;exitY=0.5;exitDx=0;exitDy=0;entryX=1;entryY=0.5;entryDx=0;entryDy=0;" edge="1" parent="WIyWlLk6GJQsqaUBKTNV-1" source="F_oMi_odO9XoaKtCZl9L-27" target="F_oMi_odO9XoaKtCZl9L-21">
          <mxGeometry width="50" height="50" relative="1" as="geometry">
            <mxPoint x="354" y="970" as="sourcePoint" />
            <mxPoint x="404" y="920" as="targetPoint" />
          </mxGeometry>
        </mxCell>
        <mxCell id="F_oMi_odO9XoaKtCZl9L-29" value="" style="endArrow=classic;html=1;rounded=0;exitX=0.5;exitY=1;exitDx=0;exitDy=0;" edge="1" parent="WIyWlLk6GJQsqaUBKTNV-1" source="F_oMi_odO9XoaKtCZl9L-21">
          <mxGeometry width="50" height="50" relative="1" as="geometry">
            <mxPoint x="160" y="890" as="sourcePoint" />
            <mxPoint x="40" y="990" as="targetPoint" />
            <Array as="points">
              <mxPoint x="319" y="920" />
              <mxPoint x="40" y="920" />
            </Array>
          </mxGeometry>
        </mxCell>
        <mxCell id="F_oMi_odO9XoaKtCZl9L-30" value="유저 합이 21이 초과시" style="rounded=1;whiteSpace=wrap;html=1;" vertex="1" parent="WIyWlLk6GJQsqaUBKTNV-1">
          <mxGeometry y="990" width="130" height="60" as="geometry" />
        </mxCell>
        <mxCell id="F_oMi_odO9XoaKtCZl9L-31" value="패배" style="rounded=1;whiteSpace=wrap;html=1;" vertex="1" parent="WIyWlLk6GJQsqaUBKTNV-1">
          <mxGeometry x="25" y="1090" width="80" height="40" as="geometry" />
        </mxCell>
        <mxCell id="F_oMi_odO9XoaKtCZl9L-35" value="CPU합이 17미만일시" style="rounded=1;whiteSpace=wrap;html=1;" vertex="1" parent="WIyWlLk6GJQsqaUBKTNV-1">
          <mxGeometry x="180" y="990" width="120" height="60" as="geometry" />
        </mxCell>
        <mxCell id="F_oMi_odO9XoaKtCZl9L-39" value="17이상&amp;nbsp; 21이하&lt;br&gt;일때 까지 뽑기" style="rounded=1;whiteSpace=wrap;html=1;" vertex="1" parent="WIyWlLk6GJQsqaUBKTNV-1">
          <mxGeometry x="188" y="1090" width="104" height="50" as="geometry" />
        </mxCell>
        <mxCell id="F_oMi_odO9XoaKtCZl9L-40" value="" style="endArrow=classic;html=1;rounded=0;exitX=0.5;exitY=1;exitDx=0;exitDy=0;entryX=0.5;entryY=0;entryDx=0;entryDy=0;" edge="1" parent="WIyWlLk6GJQsqaUBKTNV-1" source="F_oMi_odO9XoaKtCZl9L-35" target="F_oMi_odO9XoaKtCZl9L-39">
          <mxGeometry relative="1" as="geometry">
            <mxPoint x="369" y="1100" as="sourcePoint" />
            <mxPoint x="469" y="1100" as="targetPoint" />
          </mxGeometry>
        </mxCell>
        <mxCell id="F_oMi_odO9XoaKtCZl9L-41" value="Yes" style="edgeLabel;resizable=0;html=1;align=center;verticalAlign=middle;" connectable="0" vertex="1" parent="F_oMi_odO9XoaKtCZl9L-40">
          <mxGeometry relative="1" as="geometry" />
        </mxCell>
        <mxCell id="F_oMi_odO9XoaKtCZl9L-42" value="CPU합이 21 초과시" style="rounded=1;whiteSpace=wrap;html=1;" vertex="1" parent="WIyWlLk6GJQsqaUBKTNV-1">
          <mxGeometry x="350" y="990" width="120" height="60" as="geometry" />
        </mxCell>
        <mxCell id="F_oMi_odO9XoaKtCZl9L-43" value="" style="endArrow=classic;html=1;rounded=0;exitX=1;exitY=0.5;exitDx=0;exitDy=0;entryX=0.092;entryY=1.067;entryDx=0;entryDy=0;entryPerimeter=0;" edge="1" parent="WIyWlLk6GJQsqaUBKTNV-1" source="F_oMi_odO9XoaKtCZl9L-39" target="F_oMi_odO9XoaKtCZl9L-42">
          <mxGeometry width="50" height="50" relative="1" as="geometry">
            <mxPoint x="329" y="1120" as="sourcePoint" />
            <mxPoint x="370" y="1115" as="targetPoint" />
            <Array as="points">
              <mxPoint x="361" y="1115" />
            </Array>
          </mxGeometry>
        </mxCell>
        <mxCell id="F_oMi_odO9XoaKtCZl9L-45" value="" style="endArrow=classic;html=1;rounded=0;exitX=1;exitY=0.5;exitDx=0;exitDy=0;entryX=0;entryY=0.5;entryDx=0;entryDy=0;" edge="1" parent="WIyWlLk6GJQsqaUBKTNV-1" source="F_oMi_odO9XoaKtCZl9L-35" target="F_oMi_odO9XoaKtCZl9L-42">
          <mxGeometry relative="1" as="geometry">
            <mxPoint x="314" y="970" as="sourcePoint" />
            <mxPoint x="414" y="970" as="targetPoint" />
          </mxGeometry>
        </mxCell>
        <mxCell id="F_oMi_odO9XoaKtCZl9L-46" value="No" style="edgeLabel;resizable=0;html=1;align=center;verticalAlign=middle;" connectable="0" vertex="1" parent="F_oMi_odO9XoaKtCZl9L-45">
          <mxGeometry relative="1" as="geometry" />
        </mxCell>
        <mxCell id="F_oMi_odO9XoaKtCZl9L-49" value="" style="endArrow=classic;html=1;rounded=0;exitX=0.5;exitY=1;exitDx=0;exitDy=0;entryX=0.5;entryY=0;entryDx=0;entryDy=0;" edge="1" parent="WIyWlLk6GJQsqaUBKTNV-1" source="F_oMi_odO9XoaKtCZl9L-30" target="F_oMi_odO9XoaKtCZl9L-31">
          <mxGeometry relative="1" as="geometry">
            <mxPoint x="280" y="870" as="sourcePoint" />
            <mxPoint x="380" y="870" as="targetPoint" />
          </mxGeometry>
        </mxCell>
        <mxCell id="F_oMi_odO9XoaKtCZl9L-50" value="Yes" style="edgeLabel;resizable=0;html=1;align=center;verticalAlign=middle;" connectable="0" vertex="1" parent="F_oMi_odO9XoaKtCZl9L-49">
          <mxGeometry relative="1" as="geometry" />
        </mxCell>
        <mxCell id="F_oMi_odO9XoaKtCZl9L-51" value="" style="endArrow=classic;html=1;rounded=0;exitX=1;exitY=0.5;exitDx=0;exitDy=0;entryX=0;entryY=0.5;entryDx=0;entryDy=0;" edge="1" parent="WIyWlLk6GJQsqaUBKTNV-1" source="F_oMi_odO9XoaKtCZl9L-30" target="F_oMi_odO9XoaKtCZl9L-35">
          <mxGeometry relative="1" as="geometry">
            <mxPoint x="280" y="870" as="sourcePoint" />
            <mxPoint x="380" y="870" as="targetPoint" />
          </mxGeometry>
        </mxCell>
        <mxCell id="F_oMi_odO9XoaKtCZl9L-52" value="No" style="edgeLabel;resizable=0;html=1;align=center;verticalAlign=middle;" connectable="0" vertex="1" parent="F_oMi_odO9XoaKtCZl9L-51">
          <mxGeometry relative="1" as="geometry" />
        </mxCell>
        <mxCell id="F_oMi_odO9XoaKtCZl9L-54" value="승리" style="rounded=1;whiteSpace=wrap;html=1;" vertex="1" parent="WIyWlLk6GJQsqaUBKTNV-1">
          <mxGeometry x="379" y="1095" width="80" height="40" as="geometry" />
        </mxCell>
        <mxCell id="F_oMi_odO9XoaKtCZl9L-55" value="" style="endArrow=classic;html=1;rounded=0;exitX=0.5;exitY=1;exitDx=0;exitDy=0;entryX=0.388;entryY=0.075;entryDx=0;entryDy=0;entryPerimeter=0;" edge="1" parent="WIyWlLk6GJQsqaUBKTNV-1" source="F_oMi_odO9XoaKtCZl9L-42" target="F_oMi_odO9XoaKtCZl9L-54">
          <mxGeometry relative="1" as="geometry">
            <mxPoint x="280" y="870" as="sourcePoint" />
            <mxPoint x="380" y="870" as="targetPoint" />
          </mxGeometry>
        </mxCell>
        <mxCell id="F_oMi_odO9XoaKtCZl9L-56" value="Yes" style="edgeLabel;resizable=0;html=1;align=center;verticalAlign=middle;" connectable="0" vertex="1" parent="F_oMi_odO9XoaKtCZl9L-55">
          <mxGeometry relative="1" as="geometry" />
        </mxCell>
        <mxCell id="F_oMi_odO9XoaKtCZl9L-57" value="유저와 CPU값 비교&lt;br&gt;이기면 win&lt;br&gt;비기면 draw&lt;br&gt;지면 lose" style="rounded=1;whiteSpace=wrap;html=1;" vertex="1" parent="WIyWlLk6GJQsqaUBKTNV-1">
          <mxGeometry x="520" y="990" width="120" height="60" as="geometry" />
        </mxCell>
        <mxCell id="F_oMi_odO9XoaKtCZl9L-58" value="" style="endArrow=classic;html=1;rounded=0;exitX=1;exitY=0.5;exitDx=0;exitDy=0;entryX=0;entryY=0.5;entryDx=0;entryDy=0;" edge="1" parent="WIyWlLk6GJQsqaUBKTNV-1" source="F_oMi_odO9XoaKtCZl9L-42" target="F_oMi_odO9XoaKtCZl9L-57">
          <mxGeometry relative="1" as="geometry">
            <mxPoint x="280" y="870" as="sourcePoint" />
            <mxPoint x="380" y="870" as="targetPoint" />
          </mxGeometry>
        </mxCell>
        <mxCell id="F_oMi_odO9XoaKtCZl9L-59" value="No" style="edgeLabel;resizable=0;html=1;align=center;verticalAlign=middle;" connectable="0" vertex="1" parent="F_oMi_odO9XoaKtCZl9L-58">
          <mxGeometry relative="1" as="geometry" />
        </mxCell>
        <mxCell id="F_oMi_odO9XoaKtCZl9L-60" value="재시작 여부" style="rounded=1;whiteSpace=wrap;html=1;" vertex="1" parent="WIyWlLk6GJQsqaUBKTNV-1">
          <mxGeometry x="680" y="900" width="120" height="60" as="geometry" />
        </mxCell>
        <mxCell id="F_oMi_odO9XoaKtCZl9L-61" value="프록그램 종료" style="rounded=1;whiteSpace=wrap;html=1;" vertex="1" parent="WIyWlLk6GJQsqaUBKTNV-1">
          <mxGeometry x="680" y="1075" width="120" height="60" as="geometry" />
        </mxCell>
        <mxCell id="F_oMi_odO9XoaKtCZl9L-62" value="" style="endArrow=classic;html=1;rounded=0;exitX=0.5;exitY=1;exitDx=0;exitDy=0;entryX=0;entryY=0.5;entryDx=0;entryDy=0;" edge="1" parent="WIyWlLk6GJQsqaUBKTNV-1" source="F_oMi_odO9XoaKtCZl9L-31" target="F_oMi_odO9XoaKtCZl9L-60">
          <mxGeometry width="50" height="50" relative="1" as="geometry">
            <mxPoint x="105" y="1169" as="sourcePoint" />
            <mxPoint x="600" y="1100" as="targetPoint" />
            <Array as="points">
              <mxPoint x="65" y="1150" />
              <mxPoint x="650" y="1150" />
              <mxPoint x="650" y="930" />
            </Array>
          </mxGeometry>
        </mxCell>
        <mxCell id="F_oMi_odO9XoaKtCZl9L-63" value="" style="endArrow=classic;html=1;rounded=0;exitX=1;exitY=0.5;exitDx=0;exitDy=0;" edge="1" parent="WIyWlLk6GJQsqaUBKTNV-1" source="F_oMi_odO9XoaKtCZl9L-54">
          <mxGeometry width="50" height="50" relative="1" as="geometry">
            <mxPoint x="499" y="1120" as="sourcePoint" />
            <mxPoint x="650" y="1115" as="targetPoint" />
          </mxGeometry>
        </mxCell>
        <mxCell id="F_oMi_odO9XoaKtCZl9L-64" value="" style="endArrow=classic;html=1;rounded=0;exitX=1;exitY=0.5;exitDx=0;exitDy=0;" edge="1" parent="WIyWlLk6GJQsqaUBKTNV-1" source="F_oMi_odO9XoaKtCZl9L-57">
          <mxGeometry width="50" height="50" relative="1" as="geometry">
            <mxPoint x="440" y="890" as="sourcePoint" />
            <mxPoint x="650" y="1020" as="targetPoint" />
          </mxGeometry>
        </mxCell>
        <mxCell id="F_oMi_odO9XoaKtCZl9L-65" value="" style="endArrow=classic;html=1;rounded=0;exitX=0.5;exitY=1;exitDx=0;exitDy=0;entryX=0.5;entryY=0;entryDx=0;entryDy=0;" edge="1" parent="WIyWlLk6GJQsqaUBKTNV-1" source="F_oMi_odO9XoaKtCZl9L-60" target="F_oMi_odO9XoaKtCZl9L-61">
          <mxGeometry relative="1" as="geometry">
            <mxPoint x="420" y="870" as="sourcePoint" />
            <mxPoint x="520" y="870" as="targetPoint" />
          </mxGeometry>
        </mxCell>
        <mxCell id="F_oMi_odO9XoaKtCZl9L-66" value="No" style="edgeLabel;resizable=0;html=1;align=center;verticalAlign=middle;" connectable="0" vertex="1" parent="F_oMi_odO9XoaKtCZl9L-65">
          <mxGeometry relative="1" as="geometry" />
        </mxCell>
        <mxCell id="F_oMi_odO9XoaKtCZl9L-67" value="" style="endArrow=classic;html=1;rounded=0;exitX=0.5;exitY=0;exitDx=0;exitDy=0;entryX=1;entryY=0.5;entryDx=0;entryDy=0;" edge="1" parent="WIyWlLk6GJQsqaUBKTNV-1" source="F_oMi_odO9XoaKtCZl9L-60" target="F_oMi_odO9XoaKtCZl9L-2">
          <mxGeometry relative="1" as="geometry">
            <mxPoint x="420" y="570" as="sourcePoint" />
            <mxPoint x="740" y="120" as="targetPoint" />
            <Array as="points">
              <mxPoint x="740" y="110" />
            </Array>
          </mxGeometry>
        </mxCell>
        <mxCell id="F_oMi_odO9XoaKtCZl9L-68" value="Yes" style="edgeLabel;resizable=0;html=1;align=center;verticalAlign=middle;" connectable="0" vertex="1" parent="F_oMi_odO9XoaKtCZl9L-67">
          <mxGeometry relative="1" as="geometry" />
        </mxCell>
      </root>
    </mxGraphModel>
  </diagram>
</mxfile>
